<?xml version="1.0" standalone="no"?>
<!DOCTYPE svg PUBLIC "-//W3C//DTD SVG 20010904//EN"
 "http://www.w3.org/TR/2001/REC-SVG-20010904/DTD/svg10.dtd">
<svg version="1.0" xmlns="http://www.w3.org/2000/svg"
 width="892.000000pt" height="344.000000pt" viewBox="0 0 892.000000 344.000000"
 preserveAspectRatio="xMidYMid meet">
<metadata>
Created by potrace 1.16, written by Peter Selinger 2001-2019
</metadata>
<g transform="translate(0.000000,344.000000) scale(0.100000,-0.100000)"
fill="#111111" stroke="none">
<path d="M40 3425 c0 -9 8 -18 18 -22 9 -3 36 -14 59 -24 23 -11 45 -19 48
-19 15 0 100 -78 121 -111 39 -63 66 -158 75 -269 11 -140 10 -1963 -1 -2210
-9 -214 -32 -347 -75 -445 -33 -74 -111 -149 -185 -179 -40 -16 -56 -28 -58
-44 -3 -22 -3 -22 635 -20 619 3 638 4 638 22 0 14 -15 25 -56 40 -114 42
-196 142 -227 276 -27 117 -31 152 -42 375 -15 296 -8 2191 8 2280 27 149 112
259 237 305 36 14 71 33 76 43 9 16 -24 17 -631 17 -568 0 -640 -2 -640 -15z"/>
<path d="M3755 2550 c-151 -23 -226 -44 -375 -101 -123 -48 -302 -205 -353
-311 -53 -110 -67 -170 -67 -293 0 -124 15 -182 68 -259 84 -122 310 -160 440
-73 49 33 53 55 16 94 -42 45 -76 103 -101 173 -21 58 -24 79 -21 195 2 73 8
139 15 150 6 11 24 47 40 79 66 140 233 252 411 277 116 17 319 6 378 -20 25
-12 53 -21 60 -21 17 0 107 -61 152 -104 40 -37 102 -127 102 -147 0 -8 7 -25
16 -37 35 -51 36 -261 0 -330 -9 -17 -16 -36 -16 -41 0 -22 -64 -103 -123
-156 -57 -52 -205 -145 -229 -145 -6 0 -29 -8 -52 -19 -39 -18 -101 -38 -229
-75 -32 -10 -95 -23 -140 -31 -45 -7 -125 -20 -177 -29 -207 -34 -430 -101
-525 -159 -141 -85 -218 -182 -260 -328 -13 -43 -16 -85 -12 -190 6 -179 27
-252 108 -364 35 -49 118 -125 137 -125 5 0 17 -9 27 -20 10 -11 23 -20 29
-20 6 0 25 -7 41 -16 17 -9 72 -27 123 -40 83 -22 112 -24 290 -24 108 1 215
5 237 9 85 18 171 44 190 57 11 8 29 14 40 14 11 0 31 9 45 20 14 11 28 20 32
20 3 0 39 22 80 49 125 85 244 224 313 366 33 67 75 133 76 119 0 -5 0 -56 -1
-114 -3 -211 32 -328 130 -430 95 -99 131 -110 353 -110 95 0 188 5 207 10 54
14 103 33 133 53 14 9 32 17 38 17 33 0 219 192 219 226 0 31 -30 25 -78 -16
-60 -52 -136 -79 -223 -80 -57 0 -71 4 -106 29 -33 24 -45 42 -64 98 -24 68
-24 68 -24 623 0 410 3 565 12 595 7 22 19 65 27 95 18 72 34 116 57 162 10
20 19 42 19 48 0 22 97 157 155 216 33 34 78 71 100 83 22 12 47 25 55 30 46
27 141 46 225 46 154 -1 271 -61 350 -179 19 -29 35 -59 35 -67 0 -8 6 -24 14
-35 8 -11 17 -38 21 -60 4 -21 14 -73 23 -114 15 -66 17 -151 17 -695 0 -605
-1 -622 -22 -715 -24 -103 -45 -151 -88 -202 -37 -44 -60 -59 -120 -80 -27 -9
-50 -23 -50 -30 0 -11 107 -13 578 -16 572 -2 577 -2 577 18 0 14 -7 20 -22
20 -36 0 -121 44 -148 77 -47 56 -88 157 -101 247 -17 127 -23 599 -10 817 12
202 30 314 72 454 37 125 69 195 133 294 25 39 120 140 157 166 168 122 405
135 566 31 100 -63 180 -219 204 -401 17 -123 24 -1069 9 -1250 -15 -191 -49
-297 -116 -363 -32 -31 -112 -72 -140 -72 -17 0 -24 -6 -24 -20 0 -20 7 -20
590 -20 570 0 590 1 590 19 0 14 -10 20 -39 25 -113 18 -218 133 -236 261 -4
28 -12 61 -18 75 -7 16 -13 264 -17 710 -6 653 -8 690 -28 781 -12 53 -29 109
-37 125 -8 16 -15 36 -15 44 0 8 -14 38 -30 65 -16 28 -38 66 -49 86 -22 40
-118 132 -183 175 -53 35 -127 66 -232 94 -72 20 -98 22 -265 18 -226 -5 -282
-19 -456 -112 -74 -40 -174 -133 -241 -223 -26 -34 -104 -183 -104 -198 0 -5
-7 -23 -15 -39 -9 -17 -20 -50 -26 -75 -11 -54 -39 -121 -50 -121 -9 0 -15 28
-29 126 -5 38 -16 87 -25 107 -8 20 -15 43 -15 52 0 13 -26 71 -73 161 -40 75
-226 244 -269 244 -7 0 -24 7 -36 16 -21 15 -56 25 -179 55 -72 18 -387 7
-458 -15 -97 -30 -168 -58 -197 -78 -14 -10 -29 -18 -33 -18 -12 0 -108 -81
-153 -129 -44 -48 -109 -137 -130 -181 -6 -14 -16 -32 -21 -40 -14 -25 -49
-113 -55 -140 -8 -37 -31 -64 -49 -57 -10 4 -18 24 -23 54 -4 26 -15 64 -25
83 -11 19 -19 38 -19 42 0 23 -114 180 -161 222 -135 122 -281 190 -510 237
-86 18 -144 22 -334 25 -126 1 -252 -1 -280 -6z m785 -1202 c-1 -365 -20 -496
-96 -649 -55 -111 -124 -195 -229 -278 -119 -95 -247 -141 -396 -141 -155 0
-270 48 -353 147 -126 152 -121 477 11 650 26 33 121 110 163 130 14 7 32 17
40 21 48 28 147 67 215 85 261 67 476 162 575 254 19 18 43 33 53 33 16 0 17
-19 17 -252z"/>
</g>
</svg>
